<mxfile host="Electron" agent="Mozilla/5.0 (X11; Linux x86_64) AppleWebKit/537.36 (KHTML, like Gecko) draw.io/24.7.17 Chrome/128.0.6613.36 Electron/32.0.1 Safari/537.36" version="24.7.17">
  <diagram name="Page-1" id="U35k9u9q7gOtjrvSYFFk">
    <mxGraphModel dx="1040" dy="1016" grid="1" gridSize="10" guides="1" tooltips="1" connect="1" arrows="1" fold="1" page="1" pageScale="1" pageWidth="850" pageHeight="1100" math="1" shadow="0">
      <root>
        <mxCell id="0" />
        <mxCell id="1" parent="0" />
        <mxCell id="K5w0i8JdGbid3rLtn2DB-1" value="" style="verticalLabelPosition=bottom;shadow=0;dashed=0;align=center;html=1;verticalAlign=top;shape=mxgraph.electrical.transistors.nmos;pointerEvents=1;strokeWidth=2;" parent="1" vertex="1">
          <mxGeometry x="100" y="460" width="60" height="100" as="geometry" />
        </mxCell>
        <mxCell id="K5w0i8JdGbid3rLtn2DB-2" value="" style="verticalLabelPosition=bottom;shadow=0;dashed=0;align=center;html=1;verticalAlign=top;shape=mxgraph.electrical.transistors.nmos;pointerEvents=1;direction=east;flipH=1;strokeWidth=2;" parent="1" vertex="1">
          <mxGeometry x="280" y="460" width="60" height="100" as="geometry" />
        </mxCell>
        <mxCell id="K5w0i8JdGbid3rLtn2DB-6" value="" style="endArrow=none;html=1;rounded=0;strokeWidth=2;" parent="1" edge="1">
          <mxGeometry width="50" height="50" relative="1" as="geometry">
            <mxPoint x="160" y="580" as="sourcePoint" />
            <mxPoint x="280" y="580" as="targetPoint" />
          </mxGeometry>
        </mxCell>
        <mxCell id="K5w0i8JdGbid3rLtn2DB-7" value="" style="endArrow=none;html=1;rounded=0;strokeWidth=2;" parent="1" edge="1">
          <mxGeometry width="50" height="50" relative="1" as="geometry">
            <mxPoint x="160" y="570" as="sourcePoint" />
            <mxPoint x="160" y="550" as="targetPoint" />
            <Array as="points">
              <mxPoint x="160" y="580" />
            </Array>
          </mxGeometry>
        </mxCell>
        <mxCell id="K5w0i8JdGbid3rLtn2DB-8" value="" style="endArrow=none;html=1;rounded=0;strokeWidth=2;" parent="1" edge="1">
          <mxGeometry width="50" height="50" relative="1" as="geometry">
            <mxPoint x="280" y="570" as="sourcePoint" />
            <mxPoint x="280" y="550" as="targetPoint" />
            <Array as="points">
              <mxPoint x="280" y="580" />
            </Array>
          </mxGeometry>
        </mxCell>
        <mxCell id="K5w0i8JdGbid3rLtn2DB-9" value="" style="endArrow=none;html=1;rounded=0;exitX=0.5;exitY=0;exitDx=0;exitDy=0;exitPerimeter=0;strokeWidth=2;" parent="1" edge="1">
          <mxGeometry width="50" height="50" relative="1" as="geometry">
            <mxPoint x="220" y="636" as="sourcePoint" />
            <mxPoint x="220" y="580" as="targetPoint" />
          </mxGeometry>
        </mxCell>
        <mxCell id="K5w0i8JdGbid3rLtn2DB-10" value="" style="endArrow=none;html=1;rounded=0;strokeWidth=2;" parent="1" edge="1">
          <mxGeometry width="50" height="50" relative="1" as="geometry">
            <mxPoint x="160" y="470" as="sourcePoint" />
            <mxPoint x="160" y="400" as="targetPoint" />
          </mxGeometry>
        </mxCell>
        <mxCell id="K5w0i8JdGbid3rLtn2DB-11" value="" style="endArrow=none;html=1;rounded=0;strokeWidth=2;" parent="1" edge="1">
          <mxGeometry width="50" height="50" relative="1" as="geometry">
            <mxPoint x="280" y="470" as="sourcePoint" />
            <mxPoint x="280" y="419" as="targetPoint" />
          </mxGeometry>
        </mxCell>
        <mxCell id="K5w0i8JdGbid3rLtn2DB-12" value="" style="endArrow=none;html=1;rounded=0;strokeWidth=2;" parent="1" edge="1">
          <mxGeometry width="50" height="50" relative="1" as="geometry">
            <mxPoint x="219.89999999999998" y="706" as="sourcePoint" />
            <mxPoint x="219.89999999999998" y="686" as="targetPoint" />
          </mxGeometry>
        </mxCell>
        <mxCell id="K5w0i8JdGbid3rLtn2DB-13" value="" style="pointerEvents=1;verticalLabelPosition=bottom;shadow=0;dashed=0;align=center;html=1;verticalAlign=top;shape=mxgraph.electrical.signal_sources.signal_ground;strokeWidth=2;" parent="1" vertex="1">
          <mxGeometry x="209" y="700" width="22" height="20" as="geometry" />
        </mxCell>
        <mxCell id="K5w0i8JdGbid3rLtn2DB-14" value="&lt;font color=&quot;#cc00cc&quot; style=&quot;font-size: 16px;&quot;&gt;$$V_\text{ip}$$&lt;/font&gt;" style="text;html=1;align=center;verticalAlign=middle;whiteSpace=wrap;rounded=0;strokeWidth=2;" parent="1" vertex="1">
          <mxGeometry x="60" y="480" width="60" height="30" as="geometry" />
        </mxCell>
        <mxCell id="K5w0i8JdGbid3rLtn2DB-15" value="&lt;font color=&quot;#cc00cc&quot; style=&quot;font-size: 16px;&quot;&gt;$$V_\text{im}$$&lt;/font&gt;" style="text;html=1;align=center;verticalAlign=middle;whiteSpace=wrap;rounded=0;strokeWidth=2;" parent="1" vertex="1">
          <mxGeometry x="320" y="480" width="60" height="30" as="geometry" />
        </mxCell>
        <mxCell id="K5w0i8JdGbid3rLtn2DB-16" value="" style="verticalLabelPosition=bottom;shadow=0;dashed=0;align=center;html=1;verticalAlign=top;shape=mxgraph.electrical.transistors.nmos;pointerEvents=1;strokeWidth=2;" parent="1" vertex="1">
          <mxGeometry x="430" y="460" width="60" height="100" as="geometry" />
        </mxCell>
        <mxCell id="K5w0i8JdGbid3rLtn2DB-17" value="" style="verticalLabelPosition=bottom;shadow=0;dashed=0;align=center;html=1;verticalAlign=top;shape=mxgraph.electrical.transistors.nmos;pointerEvents=1;direction=east;flipH=1;strokeWidth=2;" parent="1" vertex="1">
          <mxGeometry x="610" y="460" width="60" height="100" as="geometry" />
        </mxCell>
        <mxCell id="K5w0i8JdGbid3rLtn2DB-19" value="" style="endArrow=none;html=1;rounded=0;strokeWidth=2;" parent="1" edge="1">
          <mxGeometry width="50" height="50" relative="1" as="geometry">
            <mxPoint x="490" y="580" as="sourcePoint" />
            <mxPoint x="610" y="580" as="targetPoint" />
          </mxGeometry>
        </mxCell>
        <mxCell id="K5w0i8JdGbid3rLtn2DB-20" value="" style="endArrow=none;html=1;rounded=0;strokeWidth=2;" parent="1" edge="1">
          <mxGeometry width="50" height="50" relative="1" as="geometry">
            <mxPoint x="490" y="570" as="sourcePoint" />
            <mxPoint x="490" y="550" as="targetPoint" />
            <Array as="points">
              <mxPoint x="490" y="580" />
            </Array>
          </mxGeometry>
        </mxCell>
        <mxCell id="K5w0i8JdGbid3rLtn2DB-21" value="" style="endArrow=none;html=1;rounded=0;strokeWidth=2;" parent="1" edge="1">
          <mxGeometry width="50" height="50" relative="1" as="geometry">
            <mxPoint x="610" y="570" as="sourcePoint" />
            <mxPoint x="610" y="550" as="targetPoint" />
            <Array as="points">
              <mxPoint x="610" y="580" />
            </Array>
          </mxGeometry>
        </mxCell>
        <mxCell id="K5w0i8JdGbid3rLtn2DB-22" value="" style="endArrow=none;html=1;rounded=0;exitDx=0;exitDy=0;exitPerimeter=0;strokeWidth=2;" parent="1" source="K5w0i8JdGbid3rLtn2DB-35" edge="1">
          <mxGeometry width="50" height="50" relative="1" as="geometry">
            <mxPoint x="500" y="630" as="sourcePoint" />
            <mxPoint x="550" y="580" as="targetPoint" />
          </mxGeometry>
        </mxCell>
        <mxCell id="K5w0i8JdGbid3rLtn2DB-23" value="" style="endArrow=none;html=1;rounded=0;strokeWidth=2;" parent="1" edge="1">
          <mxGeometry width="50" height="50" relative="1" as="geometry">
            <mxPoint x="490" y="470" as="sourcePoint" />
            <mxPoint x="490" y="449" as="targetPoint" />
          </mxGeometry>
        </mxCell>
        <mxCell id="K5w0i8JdGbid3rLtn2DB-24" value="" style="endArrow=none;html=1;rounded=0;strokeWidth=2;" parent="1" edge="1">
          <mxGeometry width="50" height="50" relative="1" as="geometry">
            <mxPoint x="610" y="470" as="sourcePoint" />
            <mxPoint x="610" y="400" as="targetPoint" />
          </mxGeometry>
        </mxCell>
        <mxCell id="K5w0i8JdGbid3rLtn2DB-27" value="&lt;font color=&quot;#006600&quot; style=&quot;font-size: 16px;&quot;&gt;$$V_\text{rm}$$&lt;/font&gt;" style="text;html=1;align=center;verticalAlign=middle;whiteSpace=wrap;rounded=0;strokeWidth=2;" parent="1" vertex="1">
          <mxGeometry x="390" y="480" width="60" height="30" as="geometry" />
        </mxCell>
        <mxCell id="K5w0i8JdGbid3rLtn2DB-28" value="&lt;font color=&quot;#006600&quot; style=&quot;font-size: 16px;&quot;&gt;$$V_\text{rp}$$&lt;/font&gt;" style="text;html=1;align=center;verticalAlign=middle;whiteSpace=wrap;rounded=0;strokeWidth=2;" parent="1" vertex="1">
          <mxGeometry x="650" y="480" width="60" height="30" as="geometry" />
        </mxCell>
        <mxCell id="K5w0i8JdGbid3rLtn2DB-29" value="" style="endArrow=none;html=1;rounded=0;strokeWidth=2;" parent="1" edge="1">
          <mxGeometry width="50" height="50" relative="1" as="geometry">
            <mxPoint x="160" y="450" as="sourcePoint" />
            <mxPoint x="490" y="450" as="targetPoint" />
          </mxGeometry>
        </mxCell>
        <mxCell id="K5w0i8JdGbid3rLtn2DB-31" value="" style="endArrow=none;html=1;rounded=0;strokeWidth=2;" parent="1" edge="1">
          <mxGeometry width="50" height="50" relative="1" as="geometry">
            <mxPoint x="280" y="420" as="sourcePoint" />
            <mxPoint x="610" y="420" as="targetPoint" />
          </mxGeometry>
        </mxCell>
        <mxCell id="K5w0i8JdGbid3rLtn2DB-32" value="" style="shape=waypoint;sketch=0;fillStyle=solid;size=6;pointerEvents=1;points=[];fillColor=none;resizable=0;rotatable=0;perimeter=centerPerimeter;snapToPoint=1;strokeWidth=2;" parent="1" vertex="1">
          <mxGeometry x="150" y="440" width="20" height="20" as="geometry" />
        </mxCell>
        <mxCell id="K5w0i8JdGbid3rLtn2DB-34" value="" style="shape=waypoint;sketch=0;fillStyle=solid;size=6;pointerEvents=1;points=[];fillColor=none;resizable=0;rotatable=0;perimeter=centerPerimeter;snapToPoint=1;strokeWidth=2;" parent="1" vertex="1">
          <mxGeometry x="210" y="570" width="20" height="20" as="geometry" />
        </mxCell>
        <mxCell id="K5w0i8JdGbid3rLtn2DB-36" value="" style="endArrow=none;html=1;rounded=0;exitX=0.5;exitY=0;exitDx=0;exitDy=0;exitPerimeter=0;strokeWidth=2;" parent="1" target="K5w0i8JdGbid3rLtn2DB-35" edge="1">
          <mxGeometry width="50" height="50" relative="1" as="geometry">
            <mxPoint x="550" y="636" as="sourcePoint" />
            <mxPoint x="550" y="580" as="targetPoint" />
          </mxGeometry>
        </mxCell>
        <mxCell id="K5w0i8JdGbid3rLtn2DB-35" value="" style="shape=waypoint;sketch=0;fillStyle=solid;size=6;pointerEvents=1;points=[];fillColor=none;resizable=0;rotatable=0;perimeter=centerPerimeter;snapToPoint=1;strokeWidth=2;" parent="1" vertex="1">
          <mxGeometry x="540" y="570" width="20" height="20" as="geometry" />
        </mxCell>
        <mxCell id="K5w0i8JdGbid3rLtn2DB-38" value="" style="shape=waypoint;sketch=0;fillStyle=solid;size=6;pointerEvents=1;points=[];fillColor=none;resizable=0;rotatable=0;perimeter=centerPerimeter;snapToPoint=1;strokeWidth=2;" parent="1" vertex="1">
          <mxGeometry x="600" y="410" width="20" height="20" as="geometry" />
        </mxCell>
        <mxCell id="K5w0i8JdGbid3rLtn2DB-39" value="" style="verticalLabelPosition=bottom;shadow=0;dashed=0;align=center;html=1;verticalAlign=top;shape=mxgraph.electrical.transistors.nmos;pointerEvents=1;strokeWidth=2;" parent="1" vertex="1">
          <mxGeometry x="100" y="849" width="60" height="100" as="geometry" />
        </mxCell>
        <mxCell id="K5w0i8JdGbid3rLtn2DB-40" value="" style="verticalLabelPosition=bottom;shadow=0;dashed=0;align=center;html=1;verticalAlign=top;shape=mxgraph.electrical.transistors.nmos;pointerEvents=1;direction=east;flipH=1;strokeWidth=2;" parent="1" vertex="1">
          <mxGeometry x="280" y="849" width="60" height="100" as="geometry" />
        </mxCell>
        <mxCell id="K5w0i8JdGbid3rLtn2DB-42" value="" style="endArrow=none;html=1;rounded=0;strokeWidth=2;" parent="1" edge="1">
          <mxGeometry width="50" height="50" relative="1" as="geometry">
            <mxPoint x="160" y="969" as="sourcePoint" />
            <mxPoint x="280" y="969" as="targetPoint" />
          </mxGeometry>
        </mxCell>
        <mxCell id="K5w0i8JdGbid3rLtn2DB-43" value="" style="endArrow=none;html=1;rounded=0;strokeWidth=2;" parent="1" edge="1">
          <mxGeometry width="50" height="50" relative="1" as="geometry">
            <mxPoint x="160" y="959" as="sourcePoint" />
            <mxPoint x="160" y="939" as="targetPoint" />
            <Array as="points">
              <mxPoint x="160" y="969" />
            </Array>
          </mxGeometry>
        </mxCell>
        <mxCell id="K5w0i8JdGbid3rLtn2DB-44" value="" style="endArrow=none;html=1;rounded=0;strokeWidth=2;" parent="1" edge="1">
          <mxGeometry width="50" height="50" relative="1" as="geometry">
            <mxPoint x="280" y="959" as="sourcePoint" />
            <mxPoint x="280" y="939" as="targetPoint" />
            <Array as="points">
              <mxPoint x="280" y="969" />
            </Array>
          </mxGeometry>
        </mxCell>
        <mxCell id="K5w0i8JdGbid3rLtn2DB-45" value="" style="endArrow=none;html=1;rounded=0;exitX=0.5;exitY=0;exitDx=0;exitDy=0;exitPerimeter=0;strokeWidth=2;" parent="1" edge="1">
          <mxGeometry width="50" height="50" relative="1" as="geometry">
            <mxPoint x="220" y="1025" as="sourcePoint" />
            <mxPoint x="220" y="969" as="targetPoint" />
          </mxGeometry>
        </mxCell>
        <mxCell id="K5w0i8JdGbid3rLtn2DB-46" value="" style="endArrow=none;html=1;rounded=0;strokeWidth=2;" parent="1" edge="1">
          <mxGeometry width="50" height="50" relative="1" as="geometry">
            <mxPoint x="160" y="859" as="sourcePoint" />
            <mxPoint x="160" y="789" as="targetPoint" />
          </mxGeometry>
        </mxCell>
        <mxCell id="K5w0i8JdGbid3rLtn2DB-47" value="" style="endArrow=none;html=1;rounded=0;strokeWidth=2;" parent="1" edge="1">
          <mxGeometry width="50" height="50" relative="1" as="geometry">
            <mxPoint x="280" y="859" as="sourcePoint" />
            <mxPoint x="280" y="808" as="targetPoint" />
          </mxGeometry>
        </mxCell>
        <mxCell id="K5w0i8JdGbid3rLtn2DB-50" value="&lt;font color=&quot;#cc00cc&quot; style=&quot;font-size: 16px;&quot;&gt;$$V_\text{ip}$$&lt;/font&gt;" style="text;html=1;align=center;verticalAlign=middle;whiteSpace=wrap;rounded=0;strokeWidth=2;" parent="1" vertex="1">
          <mxGeometry x="60" y="869" width="60" height="30" as="geometry" />
        </mxCell>
        <mxCell id="K5w0i8JdGbid3rLtn2DB-51" value="&lt;font color=&quot;#006600&quot; style=&quot;font-size: 16px;&quot;&gt;$$V_\text{rp}$$&lt;/font&gt;" style="text;html=1;align=center;verticalAlign=middle;whiteSpace=wrap;rounded=0;strokeWidth=2;" parent="1" vertex="1">
          <mxGeometry x="320" y="869" width="60" height="30" as="geometry" />
        </mxCell>
        <mxCell id="K5w0i8JdGbid3rLtn2DB-52" value="" style="verticalLabelPosition=bottom;shadow=0;dashed=0;align=center;html=1;verticalAlign=top;shape=mxgraph.electrical.transistors.nmos;pointerEvents=1;strokeWidth=2;" parent="1" vertex="1">
          <mxGeometry x="430" y="849" width="60" height="100" as="geometry" />
        </mxCell>
        <mxCell id="K5w0i8JdGbid3rLtn2DB-53" value="" style="verticalLabelPosition=bottom;shadow=0;dashed=0;align=center;html=1;verticalAlign=top;shape=mxgraph.electrical.transistors.nmos;pointerEvents=1;direction=east;flipH=1;strokeWidth=2;" parent="1" vertex="1">
          <mxGeometry x="610" y="849" width="60" height="100" as="geometry" />
        </mxCell>
        <mxCell id="K5w0i8JdGbid3rLtn2DB-55" value="" style="endArrow=none;html=1;rounded=0;strokeWidth=2;" parent="1" edge="1">
          <mxGeometry width="50" height="50" relative="1" as="geometry">
            <mxPoint x="490" y="969" as="sourcePoint" />
            <mxPoint x="610" y="969" as="targetPoint" />
          </mxGeometry>
        </mxCell>
        <mxCell id="K5w0i8JdGbid3rLtn2DB-56" value="" style="endArrow=none;html=1;rounded=0;strokeWidth=2;" parent="1" edge="1">
          <mxGeometry width="50" height="50" relative="1" as="geometry">
            <mxPoint x="490" y="959" as="sourcePoint" />
            <mxPoint x="490" y="939" as="targetPoint" />
            <Array as="points">
              <mxPoint x="490" y="969" />
            </Array>
          </mxGeometry>
        </mxCell>
        <mxCell id="K5w0i8JdGbid3rLtn2DB-57" value="" style="endArrow=none;html=1;rounded=0;strokeWidth=2;" parent="1" edge="1">
          <mxGeometry width="50" height="50" relative="1" as="geometry">
            <mxPoint x="610" y="959" as="sourcePoint" />
            <mxPoint x="610" y="939" as="targetPoint" />
            <Array as="points">
              <mxPoint x="610" y="969" />
            </Array>
          </mxGeometry>
        </mxCell>
        <mxCell id="K5w0i8JdGbid3rLtn2DB-58" value="" style="endArrow=none;html=1;rounded=0;exitDx=0;exitDy=0;exitPerimeter=0;strokeWidth=2;" parent="1" source="K5w0i8JdGbid3rLtn2DB-71" edge="1">
          <mxGeometry width="50" height="50" relative="1" as="geometry">
            <mxPoint x="500" y="1019" as="sourcePoint" />
            <mxPoint x="550" y="969" as="targetPoint" />
          </mxGeometry>
        </mxCell>
        <mxCell id="K5w0i8JdGbid3rLtn2DB-59" value="" style="endArrow=none;html=1;rounded=0;strokeWidth=2;" parent="1" edge="1">
          <mxGeometry width="50" height="50" relative="1" as="geometry">
            <mxPoint x="490" y="859" as="sourcePoint" />
            <mxPoint x="490" y="838" as="targetPoint" />
          </mxGeometry>
        </mxCell>
        <mxCell id="K5w0i8JdGbid3rLtn2DB-60" value="" style="endArrow=none;html=1;rounded=0;strokeWidth=2;" parent="1" edge="1">
          <mxGeometry width="50" height="50" relative="1" as="geometry">
            <mxPoint x="610" y="859" as="sourcePoint" />
            <mxPoint x="610" y="789" as="targetPoint" />
          </mxGeometry>
        </mxCell>
        <mxCell id="K5w0i8JdGbid3rLtn2DB-63" value="&lt;font color=&quot;#006600&quot; style=&quot;font-size: 16px;&quot;&gt;$$V_\text{rm}$$&lt;/font&gt;" style="text;html=1;align=center;verticalAlign=middle;whiteSpace=wrap;rounded=0;strokeWidth=2;" parent="1" vertex="1">
          <mxGeometry x="390" y="869" width="60" height="30" as="geometry" />
        </mxCell>
        <mxCell id="K5w0i8JdGbid3rLtn2DB-64" value="&lt;font color=&quot;#cc00cc&quot; style=&quot;font-size: 16px;&quot;&gt;$$V_\text{im}$$&lt;/font&gt;" style="text;html=1;align=center;verticalAlign=middle;whiteSpace=wrap;rounded=0;strokeWidth=2;" parent="1" vertex="1">
          <mxGeometry x="650" y="869" width="60" height="30" as="geometry" />
        </mxCell>
        <mxCell id="K5w0i8JdGbid3rLtn2DB-65" value="" style="endArrow=none;html=1;rounded=0;strokeWidth=2;" parent="1" edge="1">
          <mxGeometry width="50" height="50" relative="1" as="geometry">
            <mxPoint x="160" y="839" as="sourcePoint" />
            <mxPoint x="490" y="839" as="targetPoint" />
          </mxGeometry>
        </mxCell>
        <mxCell id="K5w0i8JdGbid3rLtn2DB-66" value="" style="endArrow=none;html=1;rounded=0;strokeWidth=2;" parent="1" edge="1">
          <mxGeometry width="50" height="50" relative="1" as="geometry">
            <mxPoint x="280" y="809" as="sourcePoint" />
            <mxPoint x="610" y="809" as="targetPoint" />
          </mxGeometry>
        </mxCell>
        <mxCell id="K5w0i8JdGbid3rLtn2DB-67" value="" style="shape=waypoint;sketch=0;fillStyle=solid;size=6;pointerEvents=1;points=[];fillColor=none;resizable=0;rotatable=0;perimeter=centerPerimeter;snapToPoint=1;strokeWidth=2;" parent="1" vertex="1">
          <mxGeometry x="150" y="829" width="20" height="20" as="geometry" />
        </mxCell>
        <mxCell id="K5w0i8JdGbid3rLtn2DB-69" value="" style="shape=waypoint;sketch=0;fillStyle=solid;size=6;pointerEvents=1;points=[];fillColor=none;resizable=0;rotatable=0;perimeter=centerPerimeter;snapToPoint=1;strokeWidth=2;" parent="1" vertex="1">
          <mxGeometry x="210" y="959" width="20" height="20" as="geometry" />
        </mxCell>
        <mxCell id="K5w0i8JdGbid3rLtn2DB-70" value="" style="endArrow=none;html=1;rounded=0;exitX=0.5;exitY=0;exitDx=0;exitDy=0;exitPerimeter=0;strokeWidth=2;" parent="1" target="K5w0i8JdGbid3rLtn2DB-71" edge="1">
          <mxGeometry width="50" height="50" relative="1" as="geometry">
            <mxPoint x="550" y="1025" as="sourcePoint" />
            <mxPoint x="550" y="969" as="targetPoint" />
          </mxGeometry>
        </mxCell>
        <mxCell id="K5w0i8JdGbid3rLtn2DB-71" value="" style="shape=waypoint;sketch=0;fillStyle=solid;size=6;pointerEvents=1;points=[];fillColor=none;resizable=0;rotatable=0;perimeter=centerPerimeter;snapToPoint=1;strokeWidth=2;" parent="1" vertex="1">
          <mxGeometry x="540" y="959" width="20" height="20" as="geometry" />
        </mxCell>
        <mxCell id="K5w0i8JdGbid3rLtn2DB-73" value="" style="shape=waypoint;sketch=0;fillStyle=solid;size=6;pointerEvents=1;points=[];fillColor=none;resizable=0;rotatable=0;perimeter=centerPerimeter;snapToPoint=1;strokeWidth=2;" parent="1" vertex="1">
          <mxGeometry x="600" y="799" width="20" height="20" as="geometry" />
        </mxCell>
        <mxCell id="K5w0i8JdGbid3rLtn2DB-74" value="" style="pointerEvents=1;verticalLabelPosition=bottom;shadow=0;dashed=0;align=center;html=1;verticalAlign=top;shape=mxgraph.electrical.signal_sources.source;aspect=fixed;points=[[0.5,0,0],[1,0.5,0],[0.5,1,0],[0,0.5,0]];elSignalType=dc2;strokeWidth=2;" parent="1" vertex="1">
          <mxGeometry x="195" y="636" width="50" height="50" as="geometry" />
        </mxCell>
        <mxCell id="K5w0i8JdGbid3rLtn2DB-76" value="" style="endArrow=none;html=1;rounded=0;strokeWidth=2;" parent="1" edge="1">
          <mxGeometry width="50" height="50" relative="1" as="geometry">
            <mxPoint x="549.9" y="706" as="sourcePoint" />
            <mxPoint x="549.9" y="686" as="targetPoint" />
          </mxGeometry>
        </mxCell>
        <mxCell id="K5w0i8JdGbid3rLtn2DB-77" value="" style="pointerEvents=1;verticalLabelPosition=bottom;shadow=0;dashed=0;align=center;html=1;verticalAlign=top;shape=mxgraph.electrical.signal_sources.signal_ground;strokeWidth=2;" parent="1" vertex="1">
          <mxGeometry x="539" y="700" width="22" height="20" as="geometry" />
        </mxCell>
        <mxCell id="K5w0i8JdGbid3rLtn2DB-78" value="" style="pointerEvents=1;verticalLabelPosition=bottom;shadow=0;dashed=0;align=center;html=1;verticalAlign=top;shape=mxgraph.electrical.signal_sources.source;aspect=fixed;points=[[0.5,0,0],[1,0.5,0],[0.5,1,0],[0,0.5,0]];elSignalType=dc2;strokeWidth=2;" parent="1" vertex="1">
          <mxGeometry x="525" y="636" width="50" height="50" as="geometry" />
        </mxCell>
        <mxCell id="K5w0i8JdGbid3rLtn2DB-79" value="" style="endArrow=none;html=1;rounded=0;strokeWidth=2;" parent="1" edge="1">
          <mxGeometry width="50" height="50" relative="1" as="geometry">
            <mxPoint x="219.89999999999998" y="1095" as="sourcePoint" />
            <mxPoint x="219.89999999999998" y="1075" as="targetPoint" />
          </mxGeometry>
        </mxCell>
        <mxCell id="K5w0i8JdGbid3rLtn2DB-80" value="" style="pointerEvents=1;verticalLabelPosition=bottom;shadow=0;dashed=0;align=center;html=1;verticalAlign=top;shape=mxgraph.electrical.signal_sources.signal_ground;strokeWidth=2;" parent="1" vertex="1">
          <mxGeometry x="209" y="1089" width="22" height="20" as="geometry" />
        </mxCell>
        <mxCell id="K5w0i8JdGbid3rLtn2DB-81" value="" style="pointerEvents=1;verticalLabelPosition=bottom;shadow=0;dashed=0;align=center;html=1;verticalAlign=top;shape=mxgraph.electrical.signal_sources.source;aspect=fixed;points=[[0.5,0,0],[1,0.5,0],[0.5,1,0],[0,0.5,0]];elSignalType=dc2;strokeWidth=2;" parent="1" vertex="1">
          <mxGeometry x="195" y="1025" width="50" height="50" as="geometry" />
        </mxCell>
        <mxCell id="K5w0i8JdGbid3rLtn2DB-82" value="" style="endArrow=blockThin;html=1;rounded=0;strokeWidth=5;endFill=1;strokeColor=#FF0000;" parent="1" edge="1">
          <mxGeometry width="50" height="50" relative="1" as="geometry">
            <mxPoint x="109" y="560" as="sourcePoint" />
            <mxPoint x="109" y="530" as="targetPoint" />
          </mxGeometry>
        </mxCell>
        <mxCell id="K5w0i8JdGbid3rLtn2DB-83" value="" style="endArrow=blockThin;html=1;rounded=0;strokeWidth=5;endFill=1;strokeColor=#0000FF;" parent="1" edge="1">
          <mxGeometry width="50" height="50" relative="1" as="geometry">
            <mxPoint x="330" y="530" as="sourcePoint" />
            <mxPoint x="330" y="560" as="targetPoint" />
          </mxGeometry>
        </mxCell>
        <mxCell id="K5w0i8JdGbid3rLtn2DB-84" value="" style="endArrow=blockThin;html=1;rounded=0;strokeWidth=5;endFill=1;strokeColor=#FF0000;" parent="1" edge="1">
          <mxGeometry width="50" height="50" relative="1" as="geometry">
            <mxPoint x="660" y="560" as="sourcePoint" />
            <mxPoint x="660" y="530" as="targetPoint" />
          </mxGeometry>
        </mxCell>
        <mxCell id="K5w0i8JdGbid3rLtn2DB-85" value="" style="endArrow=blockThin;html=1;rounded=0;strokeWidth=5;endFill=1;strokeColor=#0000FF;" parent="1" edge="1">
          <mxGeometry width="50" height="50" relative="1" as="geometry">
            <mxPoint x="440" y="529" as="sourcePoint" />
            <mxPoint x="440" y="559" as="targetPoint" />
          </mxGeometry>
        </mxCell>
        <mxCell id="K5w0i8JdGbid3rLtn2DB-86" value="" style="endArrow=blockThin;html=1;rounded=0;strokeWidth=5;endFill=1;strokeColor=#FF0000;" parent="1" edge="1">
          <mxGeometry width="50" height="50" relative="1" as="geometry">
            <mxPoint x="109" y="949" as="sourcePoint" />
            <mxPoint x="109" y="919" as="targetPoint" />
          </mxGeometry>
        </mxCell>
        <mxCell id="K5w0i8JdGbid3rLtn2DB-87" value="" style="endArrow=blockThin;html=1;rounded=0;strokeWidth=5;endFill=1;strokeColor=#FF0000;" parent="1" edge="1">
          <mxGeometry width="50" height="50" relative="1" as="geometry">
            <mxPoint x="330" y="949" as="sourcePoint" />
            <mxPoint x="330" y="919" as="targetPoint" />
          </mxGeometry>
        </mxCell>
        <mxCell id="K5w0i8JdGbid3rLtn2DB-88" value="" style="endArrow=blockThin;html=1;rounded=0;strokeWidth=5;endFill=1;strokeColor=#0000FF;" parent="1" edge="1">
          <mxGeometry width="50" height="50" relative="1" as="geometry">
            <mxPoint x="440" y="919" as="sourcePoint" />
            <mxPoint x="440" y="949" as="targetPoint" />
          </mxGeometry>
        </mxCell>
        <mxCell id="K5w0i8JdGbid3rLtn2DB-89" value="" style="endArrow=blockThin;html=1;rounded=0;strokeWidth=5;endFill=1;strokeColor=#0000FF;" parent="1" edge="1">
          <mxGeometry width="50" height="50" relative="1" as="geometry">
            <mxPoint x="660" y="919" as="sourcePoint" />
            <mxPoint x="660" y="949" as="targetPoint" />
          </mxGeometry>
        </mxCell>
        <mxCell id="K5w0i8JdGbid3rLtn2DB-90" value="" style="endArrow=none;html=1;rounded=0;strokeWidth=2;" parent="1" edge="1">
          <mxGeometry width="50" height="50" relative="1" as="geometry">
            <mxPoint x="549.9000000000001" y="1095" as="sourcePoint" />
            <mxPoint x="549.9000000000001" y="1075" as="targetPoint" />
          </mxGeometry>
        </mxCell>
        <mxCell id="K5w0i8JdGbid3rLtn2DB-91" value="" style="pointerEvents=1;verticalLabelPosition=bottom;shadow=0;dashed=0;align=center;html=1;verticalAlign=top;shape=mxgraph.electrical.signal_sources.signal_ground;strokeWidth=2;" parent="1" vertex="1">
          <mxGeometry x="539" y="1089" width="22" height="20" as="geometry" />
        </mxCell>
        <mxCell id="K5w0i8JdGbid3rLtn2DB-92" value="" style="pointerEvents=1;verticalLabelPosition=bottom;shadow=0;dashed=0;align=center;html=1;verticalAlign=top;shape=mxgraph.electrical.signal_sources.source;aspect=fixed;points=[[0.5,0,0],[1,0.5,0],[0.5,1,0],[0,0.5,0]];elSignalType=dc2;strokeWidth=2;" parent="1" vertex="1">
          <mxGeometry x="525" y="1025" width="50" height="50" as="geometry" />
        </mxCell>
        <mxCell id="K5w0i8JdGbid3rLtn2DB-93" value="&lt;font size=&quot;1&quot; color=&quot;#ea6b66&quot; style=&quot;&quot;&gt;&lt;b style=&quot;font-size: 20px;&quot;&gt;$$(a)$$&lt;/b&gt;&lt;/font&gt;" style="text;html=1;align=center;verticalAlign=middle;whiteSpace=wrap;rounded=0;strokeWidth=2;" parent="1" vertex="1">
          <mxGeometry x="365" y="720" width="60" height="30" as="geometry" />
        </mxCell>
        <mxCell id="K5w0i8JdGbid3rLtn2DB-94" value="&lt;font size=&quot;1&quot; color=&quot;#ea6b66&quot; style=&quot;&quot;&gt;&lt;b style=&quot;font-size: 20px;&quot;&gt;$$(b)$$&lt;/b&gt;&lt;/font&gt;" style="text;html=1;align=center;verticalAlign=middle;whiteSpace=wrap;rounded=0;strokeWidth=2;" parent="1" vertex="1">
          <mxGeometry x="365" y="1120" width="60" height="30" as="geometry" />
        </mxCell>
        <mxCell id="Zq7FZci2cOTBVP1z5GpU-1" value="&lt;font style=&quot;font-size: 14px;&quot;&gt;$$I_{SS}$$&lt;/font&gt;" style="text;html=1;align=center;verticalAlign=middle;whiteSpace=wrap;rounded=0;" vertex="1" parent="1">
          <mxGeometry x="234" y="620" width="60" height="30" as="geometry" />
        </mxCell>
        <mxCell id="Zq7FZci2cOTBVP1z5GpU-2" value="&lt;font style=&quot;font-size: 14px;&quot;&gt;$$I_{SS}$$&lt;/font&gt;" style="text;html=1;align=center;verticalAlign=middle;whiteSpace=wrap;rounded=0;" vertex="1" parent="1">
          <mxGeometry x="556" y="620" width="60" height="30" as="geometry" />
        </mxCell>
      </root>
    </mxGraphModel>
  </diagram>
</mxfile>
